<mxfile host="app.diagrams.net" modified="2023-10-17T04:43:59.635Z" agent="Mozilla/5.0 (Windows NT 10.0; Win64; x64) AppleWebKit/537.36 (KHTML, like Gecko) Chrome/117.0.0.0 Safari/537.36" etag="AHVFLkirvxHlPw6F6Sw-" version="22.0.4" type="device">
  <diagram name="Page-1" id="-tW2qk5xR0VfIosBq5Tb">
    <mxGraphModel dx="934" dy="552" grid="1" gridSize="10" guides="1" tooltips="1" connect="1" arrows="1" fold="1" page="1" pageScale="1" pageWidth="827" pageHeight="1169" math="0" shadow="0">
      <root>
        <mxCell id="0" />
        <mxCell id="1" parent="0" />
        <mxCell id="6tR5cRhfqKNR5JoSrm42-1" value="Кофейня" style="html=1;whiteSpace=wrap;" parent="1" vertex="1">
          <mxGeometry x="280" y="200" width="110" height="50" as="geometry" />
        </mxCell>
        <mxCell id="6tR5cRhfqKNR5JoSrm42-17" style="edgeStyle=orthogonalEdgeStyle;rounded=0;orthogonalLoop=1;jettySize=auto;html=1;endArrow=open;endFill=0;endSize=10;" parent="1" source="6tR5cRhfqKNR5JoSrm42-2" target="6tR5cRhfqKNR5JoSrm42-9" edge="1">
          <mxGeometry relative="1" as="geometry" />
        </mxCell>
        <mxCell id="6tR5cRhfqKNR5JoSrm42-2" value="Обжарочная" style="html=1;whiteSpace=wrap;" parent="1" vertex="1">
          <mxGeometry x="700" y="200" width="110" height="50" as="geometry" />
        </mxCell>
        <mxCell id="6tR5cRhfqKNR5JoSrm42-4" style="edgeStyle=orthogonalEdgeStyle;rounded=0;orthogonalLoop=1;jettySize=auto;html=1;endArrow=diamondThin;endFill=1;endSize=10;" parent="1" source="6tR5cRhfqKNR5JoSrm42-3" target="6tR5cRhfqKNR5JoSrm42-1" edge="1">
          <mxGeometry relative="1" as="geometry">
            <Array as="points">
              <mxPoint x="340" y="95" />
            </Array>
          </mxGeometry>
        </mxCell>
        <mxCell id="6tR5cRhfqKNR5JoSrm42-3" value="Каталог" style="html=1;whiteSpace=wrap;" parent="1" vertex="1">
          <mxGeometry x="359" y="80" width="110" height="50" as="geometry" />
        </mxCell>
        <mxCell id="6tR5cRhfqKNR5JoSrm42-13" style="edgeStyle=orthogonalEdgeStyle;rounded=0;orthogonalLoop=1;jettySize=auto;html=1;endArrow=diamondThin;endFill=0;endSize=10;entryX=1;entryY=0.5;entryDx=0;entryDy=0;" parent="1" source="6tR5cRhfqKNR5JoSrm42-9" target="mFzx_NbYzSr-FdsYqvn5-4" edge="1">
          <mxGeometry relative="1" as="geometry">
            <mxPoint x="580" y="110" as="targetPoint" />
          </mxGeometry>
        </mxCell>
        <mxCell id="6tR5cRhfqKNR5JoSrm42-9" value="Продукт" style="html=1;whiteSpace=wrap;" parent="1" vertex="1">
          <mxGeometry x="700" y="80" width="110" height="50" as="geometry" />
        </mxCell>
        <mxCell id="mFzx_NbYzSr-FdsYqvn5-3" style="edgeStyle=orthogonalEdgeStyle;rounded=0;orthogonalLoop=1;jettySize=auto;html=1;entryX=0.5;entryY=1;entryDx=0;entryDy=0;endArrow=diamondThin;endFill=1;endSize=10;" parent="1" source="mFzx_NbYzSr-FdsYqvn5-2" target="6tR5cRhfqKNR5JoSrm42-1" edge="1">
          <mxGeometry relative="1" as="geometry" />
        </mxCell>
        <mxCell id="mFzx_NbYzSr-FdsYqvn5-2" value="Заказ" style="html=1;whiteSpace=wrap;" parent="1" vertex="1">
          <mxGeometry x="280" y="320" width="110" height="50" as="geometry" />
        </mxCell>
        <mxCell id="mFzx_NbYzSr-FdsYqvn5-5" style="edgeStyle=orthogonalEdgeStyle;rounded=0;orthogonalLoop=1;jettySize=auto;html=1;entryX=1;entryY=0.5;entryDx=0;entryDy=0;endArrow=diamondThin;endFill=0;endSize=10;" parent="1" source="mFzx_NbYzSr-FdsYqvn5-4" target="6tR5cRhfqKNR5JoSrm42-3" edge="1">
          <mxGeometry relative="1" as="geometry" />
        </mxCell>
        <mxCell id="mFzx_NbYzSr-FdsYqvn5-4" value="Товар" style="html=1;whiteSpace=wrap;" parent="1" vertex="1">
          <mxGeometry x="520" y="80" width="110" height="50" as="geometry" />
        </mxCell>
        <mxCell id="ZH-po5ZS_wm7qML-AexC-1" value="1" style="text;html=1;align=center;verticalAlign=middle;resizable=0;points=[];autosize=1;strokeColor=none;fillColor=none;" vertex="1" parent="1">
          <mxGeometry x="325" y="68" width="30" height="30" as="geometry" />
        </mxCell>
      </root>
    </mxGraphModel>
  </diagram>
</mxfile>
